<?xml version="1.0" encoding="utf-8"?>
<!-- Generator: Adobe Illustrator 16.0.3, SVG Export Plug-In . SVG Version: 6.00 Build 0)  -->
<!DOCTYPE svg PUBLIC "-//W3C//DTD SVG 1.1//EN" "http://www.w3.org/Graphics/SVG/1.1/DTD/svg11.dtd">
<svg version="1.1" id="レイヤー_1" xmlns="http://www.w3.org/2000/svg" xmlns:xlink="http://www.w3.org/1999/xlink" x="0px"
	 y="0px" width="373px" height="164px" viewBox="-34 0 373 164" enable-background="new -34 0 373 164" xml:space="preserve">
<g id="SvgjsG7926" transform="matrix(1,0,0,1,0,0)">
	<rect fill="#393E46" fill-opacity="0" width="1" height="1"/>
</g>
<g id="SvgjsG7927" transform="matrix(-1.3157894736842104,0,0,1.3157894736842104,128.28947368421052,16.731578776710904)">
	<path fill="#94B49F" d="M59.096,50L39.894,28.776L63.048,8.564H6.543c-2.233,0-4.043,1.81-4.043,4.042v56.596
		c0,2.232,1.811,4.042,4.043,4.042h8.085v18.191l18.191-18.191h60.638c2.232,0,4.043-1.81,4.043-4.042V13.383L59.096,50z
		 M28.776,59.434l8.591-28.635l19.581,21.729L28.776,59.434z"/>
</g>
<g id="SvgjsG7928" transform="matrix(3.309203566201326,0,0,3.309203566201326,144.9007231987154,-19.724919392334137)">
	<path fill="#393E46" d="M8.92,37.48l0.8,0.84c-2.2,2.2-5.8,2.2-8.04,0c-2.2-2.2-2.2-5.8,0-8.04c2.24-2.2,5.84-2.2,8.04,0l-0.8,0.84
		c-1.76-1.76-4.64-1.76-6.4,0c-1.76,1.76-1.76,4.6,0,6.36C4.28,39.24,7.16,39.24,8.92,37.48z M13.755,40V11.4h1.16V40H13.755z
		 M29.15,28.64h1.16V40h-1.16v-2.24C28.11,39.12,26.47,40,24.63,40c-3.16,0-5.68-2.56-5.68-5.68c0-3.16,2.52-5.68,5.68-5.68
		c1.84,0,3.48,0.84,4.52,2.2V28.64z M24.63,38.8c2.48,0,4.52-2,4.52-4.48c0-2.52-2.04-4.52-4.52-4.52c-2.48,0-4.52,2-4.52,4.52
		C20.11,36.8,22.15,38.8,24.63,38.8z M36.265,40.12v-1.16c1.08,0,1.92-0.84,1.92-1.92c0-1.16-0.88-2-1.84-2.92
		c-1-0.96-2-1.92-2-3.28c0-1.32,1.04-2.36,2.36-2.36v1.16c-0.68,0-1.2,0.52-1.2,1.2c0,0.88,0.8,1.64,1.64,2.44
		c1.04,1,2.2,2.12,2.2,3.76C39.345,38.76,37.985,40.12,36.265,40.12z M45.3,40.12v-1.16c1.08,0,1.92-0.84,1.92-1.92
		c0-1.16-0.88-2-1.84-2.92c-1-0.96-2-1.92-2-3.28c0-1.32,1.04-2.36,2.36-2.36v1.16c-0.68,0-1.2,0.52-1.2,1.2
		c0,0.88,0.8,1.64,1.64,2.44c1.04,1,2.2,2.12,2.2,3.76C48.38,38.76,47.02,40.12,45.3,40.12L45.3,40.12z"/>
</g>
<g id="SvgjsG7929" transform="matrix(2.084826298440987,0,0,2.084826298440987,145.00000223677597,63.335474640378614)">
	<path fill="#393E46" d="M21.56,34.32V40H20.4v-5.68c0-2.52-2.04-4.52-4.52-4.52c-2.48,0-4.48,2.04-4.52,4.52V40H10.2v-5.68v-0.04
		c0-2.48-2.04-4.48-4.52-4.48c-2.48,0-4.52,2-4.52,4.52V40H0V28.64h1.16v2.2c1.04-1.358,2.68-2.2,4.52-2.2
		c2.24,0,4.16,1.28,5.08,3.16c0.92-1.88,2.88-3.16,5.12-3.16C19,28.64,21.56,31.16,21.56,34.32z M28.555,37.88
		c1.76,1.36,4.32,1.24,5.96-0.4l0.8,0.84c-2.2,2.2-5.8,2.2-8.04,0c-2.2-2.202-2.2-5.8,0-8.04c2.08-2.08,5.4-2.2,7.6-0.4h0.038
		c0.4,0.4,0.4,0.4,0.84,0.8L28.555,37.88z M28.115,31.12c-1.6,1.6-1.76,4.16-0.4,5.92l6.36-6.32
		C32.315,29.36,29.755,29.48,28.115,31.12L28.115,31.12z M61.35,34.32V40h-1.16v-5.68c0-2.52-2.04-4.52-4.52-4.52
		c-2.48,0-4.48,2.04-4.52,4.52V40h-1.16v-5.68v-0.04c0-2.48-2.04-4.48-4.52-4.48c-2.48,0-4.52,2-4.52,4.52V40h-1.16V28.64h1.16v2.2
		c1.04-1.358,2.68-2.2,4.52-2.2c2.24,0,4.16,1.28,5.08,3.16c0.92-1.88,2.88-3.16,5.12-3.16C58.79,28.64,61.35,31.16,61.35,34.32z
		 M71.065,29.8c-2.48,0-4.52,2-4.52,4.52c0,2.48,2.04,4.48,4.52,4.48s4.52-2,4.52-4.48C75.585,31.8,73.545,29.8,71.065,29.8z
		 M71.065,28.64c3.12,0,5.68,2.52,5.68,5.68c0,3.12-2.56,5.68-5.68,5.68c-3.16,0-5.68-2.56-5.68-5.68
		C65.385,31.16,67.905,28.64,71.065,28.64z"/>
</g>
</svg>
