<?xml version="1.0" encoding="utf-8"?>
<!-- Generator: Adobe Illustrator 16.0.3, SVG Export Plug-In . SVG Version: 6.00 Build 0)  -->
<!DOCTYPE svg PUBLIC "-//W3C//DTD SVG 1.1//EN" "http://www.w3.org/Graphics/SVG/1.1/DTD/svg11.dtd">
<svg version="1.1" id="レイヤー_1" xmlns="http://www.w3.org/2000/svg" xmlns:xlink="http://www.w3.org/1999/xlink" x="0px"
	 y="0px" width="1056px" height="406.069px" viewBox="9 -225.288 1056 406.069" enable-background="new 9 -225.288 1056 406.069"
	 xml:space="preserve">
<path fill="#444344" d="M634.416-154.176l-5.865-10.427c-0.024-0.047-0.059-0.094-0.086-0.143
	c-22.403-35.656-62.08-59.364-107.303-59.364c-69.939,0-126.639,56.697-126.639,126.64c0,20.168,4.723,39.231,13.108,56.154
	c0,0.002,0,0.002,0,0.002h227.055c8.392-16.924,13.111-35.988,13.111-56.156C647.8-117.858,642.974-137.115,634.416-154.176z"/>
<circle fill="#444344" cx="521.162" cy="-97.471" r="127.817"/>
<polygon fill="#C6C6C6" points="407.632,-41.314 407.632,-41.314 407.632,-41.316 "/>
<path fill="#C6C6C6" d="M628.468-164.748l-0.004,0.003c0.027,0.049,0.06,0.097,0.086,0.143L628.468-164.748z"/>
<path fill="#444344" d="M628.55-164.604l5.865,10.427C632.623-157.752,630.662-161.23,628.55-164.604z"/>
<path fill="#3260AC" d="M407.632-41.314c20.7,41.763,63.758,70.481,113.528,70.481c49.77,0,92.83-28.718,113.529-70.482
	L407.632-41.314L407.632-41.314z"/>
<g>
	<g>
		<circle fill="none" cx="483.207" cy="-168.353" r="3.605"/>
		<circle fill="none" cx="501.808" cy="-149.895" r="3.605"/>
		<path fill="#9A6432" d="M521.707-143.695l-42.826-42.826c-3.748-3.751-9.947-3.751-13.842,0c-3.75,3.748-3.75,9.948,0,13.841
			l42.824,42.826L521.707-143.695z M485.802-165.901c-1.442,1.439-3.75,1.439-5.188,0c-1.441-1.442-1.441-3.75,0-5.191
			c1.438-1.442,3.746-1.442,5.188,0C487.099-169.508,487.099-167.198,485.802-165.901z M504.259-147.3
			c-1.438,1.442-3.75,1.442-5.19,0c-1.441-1.439-1.441-3.75,0-5.189c1.44-1.441,3.752-1.441,5.19,0
			C505.701-151.05,505.701-148.743,504.259-147.3z"/>
		<path fill="#C6C6C6" d="M609.814-65.394c-9.951-5.916-26.533-16.729-41.677-31.87c-23.504-23.504-43.836-43.835-43.836-43.835
			l-40.375,40.376l59.41,59.409h56.525l11.535-11.536C615.148-56.599,614.283-62.801,609.814-65.394z"/>
	</g>
	<g>
		<g>
			<rect x="417.902" y="-42.848" fill="#FFFFFF" width="7.676" height="3.067"/>
		</g>
		<g>
			<path fill="#FFFFFF" d="M603-39.781h-14.711v-3.067h14.838v3.067H603z M573.451-39.781h-14.838v-3.067h14.838V-39.781z
				 M543.902-39.781h-14.841v-3.067h14.841V-39.781z M514.351-39.781h-14.838v-3.067h14.838V-39.781z M484.675-39.781h-14.838
				v-3.067h14.838V-39.781L484.675-39.781z M455.126-39.781h-14.838v-3.067h14.838V-39.781z"/>
		</g>
		<g>
			<rect x="617.837" y="-42.848" fill="#FFFFFF" width="7.676" height="3.067"/>
		</g>
	</g>
</g>
<g>
	<path d="M312.29,89.677h-31.155v89.194h-24.68V89.677h-31.002V69.643h86.836L312.29,89.677L312.29,89.677z"/>
	<path d="M386.089,178.873h-23.994v-44.332c0-11.426-4.164-17.139-12.489-17.139c-4.269,0-7.722,1.6-10.359,4.799
		c-2.641,3.199-3.961,7.264-3.961,12.188v44.481h-24.07V63.396h24.07v49.055h0.305c5.894-8.988,13.892-13.479,23.994-13.479
		c17.672,0,26.508,10.661,26.508,31.989L386.089,178.873L386.089,178.873z"/>
	<path d="M403.906,88.533c-4.064,0-7.392-1.206-9.98-3.618c-2.59-2.411-3.885-5.37-3.885-8.874c0-3.604,1.295-6.551,3.885-8.836
		s5.916-3.428,9.98-3.428c4.11,0,7.451,1.143,10.016,3.428c2.565,2.285,3.848,5.231,3.848,8.836c0,3.656-1.28,6.653-3.848,8.988
		C411.357,87.366,408.017,88.533,403.906,88.533z M415.789,178.873h-24.07v-78h24.07V178.873z"/>
	<path d="M481.744,176.055c-5.438,3.146-13.281,4.723-23.537,4.723c-11.986,0-21.684-3.63-29.098-10.893
		c-7.416-7.265-11.121-16.634-11.121-28.107c0-13.254,3.973-23.7,11.92-31.345s18.574-11.464,31.879-11.464
		c9.188,0,15.844,1.219,19.957,3.654v20.414c-5.027-3.757-10.639-5.637-16.834-5.637c-6.906,0-12.379,2.02-16.416,6.057
		s-6.055,9.609-6.055,16.722c0,6.903,1.93,12.325,5.786,16.263c3.857,3.936,9.166,5.903,15.923,5.903
		c5.987,0,11.854-1.88,17.596-5.64V176.055L481.744,176.055z"/>
	<path d="M562.248,178.873h-28.869l-24.908-38.692h-0.305v38.692h-24.07V63.396h24.07v73.506h0.305l23.232-36.029h28.563
		l-27.952,36.641L562.248,178.873z"/>
	<path d="M584.544,174.684v-24.375c4.418,3.707,9.217,6.485,14.396,8.341c5.18,1.854,10.407,2.78,15.688,2.78
		c3.099,0,5.801-0.278,8.113-0.838c2.311-0.562,4.237-1.333,5.789-2.323c1.549-0.99,2.703-2.158,3.465-3.504
		c0.762-1.348,1.143-2.809,1.143-4.38c0-2.136-0.606-4.037-1.825-5.716c-1.222-1.676-2.886-3.225-4.988-4.646
		c-2.107-1.421-4.609-2.792-7.504-4.112c-2.896-1.318-6.021-2.666-9.369-4.037c-8.531-3.555-14.894-7.896-19.08-13.023
		c-4.189-5.128-6.285-11.323-6.285-18.586c0-5.688,1.146-10.575,3.428-14.663c2.285-4.087,5.396-7.452,9.332-10.093
		c3.937-2.642,8.492-4.582,13.672-5.827c5.183-1.244,10.664-1.866,16.453-1.866c5.689,0,10.73,0.343,15.121,1.028
		c4.394,0.686,8.441,1.738,12.148,3.159V94.78c-1.828-1.269-3.82-2.386-5.979-3.352c-2.16-0.966-4.381-1.766-6.666-2.399
		c-2.283-0.634-4.559-1.104-6.813-1.409c-2.263-0.305-4.406-0.457-6.439-0.457c-2.793,0-5.332,0.269-7.617,0.8
		c-2.283,0.533-4.215,1.283-5.787,2.247c-1.573,0.965-2.795,2.121-3.655,3.468c-0.863,1.346-1.295,2.854-1.295,4.53
		c0,1.828,0.479,3.466,1.444,4.913s2.336,2.818,4.113,4.113s3.936,2.563,6.475,3.809s5.408,2.527,8.607,3.85
		c4.367,1.828,8.291,3.771,11.77,5.827c3.479,2.056,6.464,4.38,8.949,6.97c2.488,2.59,4.396,5.549,5.713,8.874
		c1.32,3.326,1.98,7.198,1.98,11.616c0,6.094-1.154,11.21-3.465,15.349c-2.314,4.14-5.447,7.491-9.408,10.056
		c-3.961,2.563-8.568,4.405-13.824,5.521s-10.805,1.676-16.645,1.676c-5.992,0-11.691-0.508-17.103-1.523
		C593.189,178.242,588.505,176.714,584.544,174.684z"/>
	<path d="M685.31,178.873h-24.067V63.396h24.067V178.873L685.31,178.873z"/>
	<path d="M704.343,88.533c-4.063,0-7.389-1.206-9.979-3.618c-2.59-2.411-3.885-5.37-3.885-8.874c0-3.604,1.295-6.551,3.885-8.836
		s5.916-3.428,9.979-3.428c4.113,0,7.453,1.143,10.021,3.428c2.563,2.285,3.846,5.231,3.846,8.836c0,3.656-1.283,6.653-3.846,8.988
		C711.796,87.366,708.458,88.533,704.343,88.533z M716.226,178.873h-24.067v-78h24.067V178.873L716.226,178.873z"/>
	<path d="M782.181,176.055c-5.434,3.146-13.276,4.723-23.534,4.723c-11.984,0-21.687-3.63-29.101-10.893
		c-7.414-7.265-11.121-16.634-11.121-28.107c0-13.254,3.976-23.7,11.922-31.345c7.947-7.645,18.572-11.464,31.877-11.464
		c9.191,0,15.847,1.219,19.957,3.654v20.414c-5.024-3.757-10.639-5.637-16.834-5.637c-6.903,0-12.377,2.02-16.413,6.057
		c-4.035,4.037-6.058,9.609-6.058,16.722c0,6.903,1.93,12.325,5.789,16.263c3.859,3.936,9.166,5.903,15.92,5.903
		c5.992,0,11.857-1.88,17.596-5.64V176.055L782.181,176.055z"/>
	<path d="M854.613,146.729h-50.884c0.812,11.324,7.945,16.983,21.402,16.983c8.58,0,16.121-2.027,22.623-6.094v17.367
		c-7.211,3.859-16.58,5.789-28.104,5.789c-12.599,0-22.369-3.49-29.326-10.474c-6.959-6.981-10.438-16.722-10.438-29.214
		c0-12.947,3.758-23.205,11.273-30.771c7.514-7.565,16.758-11.351,27.727-11.351c11.375,0,20.172,3.379,26.396,10.132
		c6.221,6.755,9.332,15.92,9.332,27.498V146.729z M832.292,131.951c0-11.171-4.52-16.758-13.559-16.758
		c-3.859,0-7.197,1.6-10.019,4.799s-4.533,7.188-5.143,11.959H832.292z"/>
</g>
</svg>
