<svg xmlns="http://www.w3.org/2000/svg" xml:space="preserve" width="82.625" height="64.499"><linearGradient id="a" x1="33.447" x2="33.447" y1="64.744" y2="17.213" gradientUnits="userSpaceOnUse"><stop offset="0" style="stop-color:#00a4e9"/><stop offset="1" style="stop-color:#001fff"/></linearGradient><path fill="url(#a)" fill-rule="evenodd" d="M13.667 52.72c-.87-.241-1.722-.424-2.539-.713-1.827-.646-3.373-1.732-4.7-3.142-1.893-2.01-3.133-4.383-3.865-7.02-.417-1.503-.742-3.033-1.055-4.562a38 38 0 0 1-.497-3.197 50 50 0 0 1-.261-3.268 24 24 0 0 1-.001-2.406c.125-2.563.947-4.833 2.883-6.609a6.86 6.86 0 0 1 3.796-1.787c3.17-.43 5.663.796 7.623 3.226 1.087 1.347 1.775 2.904 2.138 4.586.242 1.123.356 2.273.534 3.409.205 1.31.353 2.634.644 3.925.266 1.175.879 2.19 1.857 2.952.168.131.281.137.459.024.787-.503 1.568-1.018 2.379-1.478a19.5 19.5 0 0 1 5.638-2.121c1.703-.357 3.416-.378 5.13-.227 1.177.105 2.339.362 3.515.494.815.091 1.64.1 2.461.118 2.089.048 3.906-.694 5.486-2.011.596-.497 1.101-1.109 1.621-1.693 1.032-1.157 1.994-2.402 3.371-3.176.512-.287.606-.69.708-1.167.225-1.049.551-2.062 1.177-2.949.311-.441.694-.81 1.227-.966.833-.244 1.519.061 2.077.659.374.401.688.857 1.011 1.264.249-.151.516-.352.812-.488.516-.238.947-.128 1.178.381.222.492.315 1.041.476 1.563.052.168.097.399.221.474 1.606.951 2.802 2.281 3.655 3.926.435.84 1.209 1.155 2.031 1.422.088.028.18.047.271.066.891.198 1.158.64 1.003 1.536-.275 1.586-1.198 2.728-2.482 3.591-.889.598-1.682 1.245-2.137 2.245a7.2 7.2 0 0 0-.616 2.46c-.171 2.24-.392 4.47-1.21 6.587a14 14 0 0 1-.885 1.848c-.235.412-.415.823-.476 1.294-.262 2.024-.066 3.98.874 5.821.297.582.703 1.07 1.297 1.396.563.307 1.144.595 1.566 1.111.391.479.273.756.19.76-.47.025-2.932.065-3.526-.031-.341-.08-3.267-.613-4.765-1.05-2.017-.585-3.922-1.396-5.579-2.719-.154-.124-.297-.263-.442-.397-.137-.125-.271-.253-.43-.401-1.328.879-2.659 1.728-3.952 2.631a5.8 5.8 0 0 0-1.808 2.042c-.1.188-.168.392-.26.609.298.044.555.063.802.121.575.138 1.012.469 1.28 1.003.106.213.207.43.29.653.116.313-.016.507-.353.514a47 47 0 0 1-1.629.006c-.699-.01-1.398-.017-2.095-.056a1.16 1.16 0 0 1-.56-.216c-.627-.446-.876-1.147-1.14-1.823a11.3 11.3 0 0 1-.751-3.922 1 1 0 0 0-.011-.155c-.003-.019-.021-.035-.026-.042-.653.116-1.298.271-1.951.337-.755.075-1.517.083-2.277.093-.216.002-.33.046-.439.242-.392.698-.792 1.392-.895 2.204-.035.277-.028.56-.039.84-.008.212.143.191.28.192.583.004 1.13.122 1.618.467.492.348.734.837.834 1.411.036.208-.181.415-.437.419q-.86.013-1.723.012c-.888.001-1.775.007-2.662-.011-.186-.003-.371-.097-.555-.152-.039-.013-.07-.053-.108-.06-1.121-.229-1.804-1.122-2.638-1.77-1.188-.924-2.182-2.054-3.105-3.242a.5.5 0 0 0-.165-.134c-.45-.234-.9-.468-1.356-.688a.37.37 0 0 0-.279-.013c-.87.413-1.81.508-2.745.629-1.26.163-2.337.713-2.772 2.141a1.6 1.6 0 0 0-.082.55.47.47 0 0 0 .197.332c.555.308.903.725.853 1.398-.008.11.061.231.038.335-.079.348-.28.579-.665.591q-.735.024-1.471.036c-.06.001-.138-.045-.178-.093-.628-.748-1.243-1.499-1.558-2.452-.435-1.313-.565-2.656-.525-4.028a10 10 0 0 1 1.124-4.359c.027-.055.039-.117.051-.152" clip-rule="evenodd"/><linearGradient id="b" x1="74.706" x2="74.706" y1="64.745" y2="17.212" gradientUnits="userSpaceOnUse"><stop offset="0" style="stop-color:#00a4e9"/><stop offset="1" style="stop-color:#001fff"/></linearGradient><circle cx="74.706" cy="61.613" r="1.427" fill="url(#b)"/><linearGradient id="c" x1="58.788" x2="58.788" y1="64.744" y2="17.216" gradientUnits="userSpaceOnUse"><stop offset="0" style="stop-color:#00a4e9"/><stop offset="1" style="stop-color:#001fff"/></linearGradient><path fill="url(#c)" d="M72.224 61.613c.017.427.204.807.491 1.068-1.105.704-3.267 1.182-5.754 1.182H51.399c-3.61 0-6.537-1.008-6.537-2.25z"/><linearGradient id="d" x1="78.59" x2="78.59" y1="64.744" y2="17.213" gradientUnits="userSpaceOnUse"><stop offset="0" style="stop-color:#00a4e9"/><stop offset="1" style="stop-color:#001fff"/></linearGradient><path fill="url(#d)" d="M75.253 59.122c.455.282.828.671 1.054 1.064.966-.435 1.89-1.853 2.362-3.83l2.956-12.371c.686-2.871.159-5.834-1.176-6.617z"/><linearGradient id="e" x1="66.173" x2="66.173" y1="64.74" y2="17.262" gradientUnits="userSpaceOnUse"><stop offset="0" style="stop-color:#00a4e9"/><stop offset="1" style="stop-color:#001fff"/></linearGradient><path fill="url(#e)" d="M64.36 61.381h3.627v-.306a.15.15 0 0 0-.151-.151h-3.325a.15.15 0 0 0-.151.151z"/><linearGradient id="f" x1="62.1" x2="62.1" y1="64.74" y2="17.262" gradientUnits="userSpaceOnUse"><stop offset="0" style="stop-color:#00a4e9"/><stop offset="1" style="stop-color:#001fff"/></linearGradient><path fill="url(#f)" d="M60.286 61.381h3.627v-.306a.15.15 0 0 0-.152-.151h-3.325a.15.15 0 0 0-.151.151v.306z"/><linearGradient id="g" x1="58.026" x2="58.026" y1="64.74" y2="17.262" gradientUnits="userSpaceOnUse"><stop offset="0" style="stop-color:#00a4e9"/><stop offset="1" style="stop-color:#001fff"/></linearGradient><path fill="url(#g)" d="M56.212 61.381h3.628v-.306a.15.15 0 0 0-.152-.151h-3.325a.15.15 0 0 0-.151.151z"/><path fill="none" stroke="#00A4E9" stroke-miterlimit="10" stroke-width="1.5" d="m61.529 57.548.089-5.381M63.069 58.187l3.476-3.642M63.98 59.491l4.17-1.435"/><g fill="#005CFF"><path d="M36.117 11.821c0 1.932-2.143 3.088-5.767 3.088-2.044 0-2.764-.466-2.764-1.918 0-.86.014-1.89.028-2.904.014-1.143.028-2.735.042-3.497.042-1.748.761-2.425 3.553-2.425 2.679 0 4.216 1.143 4.216 2.75 0 1.381-1.368 2.298-2.933 2.425 2.286.084 3.625.747 3.625 2.481m-2.087-.254c0-.973-1.622-1.312-3.778-1.312-.592 0-.748 0-.776.07 0 .79.014 1.452.014 1.988 0 .733.184.889 1.043.889 2.313.001 3.497-.592 3.497-1.635m-4.497-4.596c-.014.296-.029.959-.043 1.649.099.057.381.057.762.057 1.917 0 3.172-.635 3.172-1.551 0-.874-.691-1.255-2.242-1.255-1.41 0-1.607.296-1.649 1.1M44.633 13.964c0 .621-.282.902-1.001.902-.705 0-.987-.281-.987-.902v-.197c-.663.733-1.452 1.17-2.538 1.17-1.453 0-2.129-.888-2.129-2.523 0-2.087.014-3.426.014-3.892 0-.592.282-.874.973-.874.733 0 1.015.282 1.015.874 0 .466-.212 2.03-.212 3.567.014 1.016.198 1.297.931 1.297.592 0 1.424-.423 2.016-1.579.028-1.691-.014-2.819-.014-3.285 0-.592.282-.874.987-.874.691 0 .973.282.973.874 0 .466-.099 1.636-.127 2.947-.028 1.057.099 2.03.099 2.495M46.58 5.575c0-.705.437-1.255 1.255-1.255.733 0 1.114.423 1.114 1.029 0 .705-.338 1.227-1.354 1.227-.578 0-1.015-.394-1.015-1.001m.084 8.404c0-.466.113-1.706.127-2.862.028-1.143-.056-2.101-.056-2.566 0-.62.282-.902 1.001-.902s1.001.282 1.001.902c0 .466-.113 1.424-.127 2.566-.028 1.185.014 2.396.014 2.862 0 .606-.282.888-.987.888-.691-.001-.973-.282-.973-.888M50.683 13.979c0-.466.127-2.017.141-3.835.028-2.891.028-4.568.028-5.02 0-.635.282-.916 1.001-.916s1.001.281 1.001.916c0 .451-.211 2.129-.24 5.02-.028 1.847.028 3.369.028 3.835 0 .606-.282.888-.987.888-.69-.001-.972-.282-.972-.888M61.511 13.979c0 .606-.282.888-.987.888-.592 0-.888-.211-.958-.648-.649.564-1.452.719-2.186.719-1.776 0-3.017-1.198-3.017-3.454 0-2.622 1.72-3.905 3.821-3.905.634 0 1.114.184 1.495.479 0-1.621-.028-2.608-.028-2.933 0-.635.282-.916 1.001-.916.733 0 1.015.281 1.015.916 0 .451-.197 2.129-.211 5.02-.016 1.93.055 3.368.055 3.834m-1.918-1.369c.028-.662.057-1.509.071-2.467v-.38c-.31-.493-.733-.648-1.396-.648-1.128 0-1.988.719-1.988 2.383 0 1.24.536 1.889 1.579 1.889.494-.001 1.142-.142 1.734-.777"/></g><path fill="none" stroke="#005CFF" stroke-miterlimit="10" stroke-width="1.428" d="M60.444 2.289h-31.59c-4.729 0-8.563 3.475-8.563 7.759s3.833 7.759 8.563 7.759h24.249l5.314 4.606 1.627-4.606h.4c4.729 0 8.563-3.474 8.563-7.759 0-4.284-3.834-7.759-8.563-7.759z"/></svg>